<svg width="864" height="712" viewBox="0 0 864 712" fill="none" xmlns="http://www.w3.org/2000/svg">
<path d="M0 0H832C849.673 0 864 14.3269 864 32V680C864 697.673 849.673 712 832 712H0V0Z" fill="#2878FE" fill-opacity="0.95"/>
<g opacity="0.2">
<rect width="8" height="8" transform="translate(144 437)" fill="#0E1F55"/>
<rect width="8" height="8" transform="translate(176 437)" fill="#0E1F55"/>
<rect width="8" height="8" transform="translate(208 437)" fill="#0E1F55"/>
<rect width="8" height="8" transform="translate(240 437)" fill="#0E1F55"/>
<rect width="8" height="8" transform="translate(160 437)" fill="#0E1F55"/>
<rect width="8" height="8" transform="translate(192 437)" fill="#0E1F55"/>
<rect width="8" height="8" transform="translate(224 437)" fill="#0E1F55"/>
<rect width="8" height="8" transform="translate(256 437)" fill="#0E1F55"/>
<rect width="8" height="8" transform="translate(144 501)" fill="#0E1F55"/>
<rect width="8" height="8" transform="translate(176 501)" fill="#0E1F55"/>
<rect width="8" height="8" transform="translate(208 501)" fill="#0E1F55"/>
<rect width="8" height="8" transform="translate(240 501)" fill="#0E1F55"/>
<rect width="8" height="8" transform="translate(160 501)" fill="#0E1F55"/>
<rect width="8" height="8" transform="translate(192 501)" fill="#0E1F55"/>
<rect width="8" height="8" transform="translate(224 501)" fill="#0E1F55"/>
<rect width="8" height="8" transform="translate(256 501)" fill="#0E1F55"/>
<rect width="8" height="8" transform="translate(144 469)" fill="#0E1F55"/>
<rect width="8" height="8" transform="translate(176 469)" fill="#0E1F55"/>
<rect width="8" height="8" transform="translate(208 469)" fill="#0E1F55"/>
<rect width="8" height="8" transform="translate(240 469)" fill="#0E1F55"/>
<rect width="8" height="8" transform="translate(160 469)" fill="#0E1F55"/>
<rect width="8" height="8" transform="translate(192 469)" fill="#0E1F55"/>
<rect width="8" height="8" transform="translate(224 469)" fill="#0E1F55"/>
<rect width="8" height="8" transform="translate(256 469)" fill="#0E1F55"/>
<rect width="8" height="8" transform="translate(144 533)" fill="#0E1F55"/>
<rect width="8" height="8" transform="translate(176 533)" fill="#0E1F55"/>
<rect width="8" height="8" transform="translate(208 533)" fill="#0E1F55"/>
<rect width="8" height="8" transform="translate(240 533)" fill="#0E1F55"/>
<rect width="8" height="8" transform="translate(160 533)" fill="#0E1F55"/>
<rect width="8" height="8" transform="translate(192 533)" fill="#0E1F55"/>
<rect width="8" height="8" transform="translate(224 533)" fill="#0E1F55"/>
<rect width="8" height="8" transform="translate(256 533)" fill="#0E1F55"/>
<rect width="8" height="8" transform="translate(144 453)" fill="#0E1F55"/>
<rect width="8" height="8" transform="translate(176 453)" fill="#0E1F55"/>
<rect width="8" height="8" transform="translate(208 453)" fill="#0E1F55"/>
<rect width="8" height="8" transform="translate(240 453)" fill="#0E1F55"/>
<rect width="8" height="8" transform="translate(160 453)" fill="#0E1F55"/>
<rect width="8" height="8" transform="translate(192 453)" fill="#0E1F55"/>
<rect width="8" height="8" transform="translate(224 453)" fill="#0E1F55"/>
<rect width="8" height="8" transform="translate(256 453)" fill="#0E1F55"/>
<rect width="8" height="8" transform="translate(144 517)" fill="#0E1F55"/>
<rect width="8" height="8" transform="translate(176 517)" fill="#0E1F55"/>
<rect width="8" height="8" transform="translate(208 517)" fill="#0E1F55"/>
<rect width="8" height="8" transform="translate(240 517)" fill="#0E1F55"/>
<rect width="8" height="8" transform="translate(160 517)" fill="#0E1F55"/>
<rect width="8" height="8" transform="translate(192 517)" fill="#0E1F55"/>
<rect width="8" height="8" transform="translate(224 517)" fill="#0E1F55"/>
<rect width="8" height="8" transform="translate(256 517)" fill="#0E1F55"/>
<rect width="8" height="8" transform="translate(144 485)" fill="#0E1F55"/>
<rect width="8" height="8" transform="translate(176 485)" fill="#0E1F55"/>
<rect width="8" height="8" transform="translate(208 485)" fill="#0E1F55"/>
<rect width="8" height="8" transform="translate(240 485)" fill="#0E1F55"/>
<rect width="8" height="8" transform="translate(160 485)" fill="#0E1F55"/>
<rect width="8" height="8" transform="translate(192 485)" fill="#0E1F55"/>
<rect width="8" height="8" transform="translate(224 485)" fill="#0E1F55"/>
<rect width="8" height="8" transform="translate(256 485)" fill="#0E1F55"/>
<rect width="8" height="8" transform="translate(144 549)" fill="#0E1F55"/>
<rect width="8" height="8" transform="translate(176 549)" fill="#0E1F55"/>
<rect width="8" height="8" transform="translate(208 549)" fill="#0E1F55"/>
<rect width="8" height="8" transform="translate(240 549)" fill="#0E1F55"/>
<rect width="8" height="8" transform="translate(160 549)" fill="#0E1F55"/>
<rect width="8" height="8" transform="translate(192 549)" fill="#0E1F55"/>
<rect width="8" height="8" transform="translate(224 549)" fill="#0E1F55"/>
<rect width="8" height="8" transform="translate(256 549)" fill="#0E1F55"/>
</g>
<g opacity="0.25">
<rect width="8" height="8" transform="translate(673 553)" fill="#0E1F55"/>
<rect width="8" height="8" transform="translate(705 553)" fill="#0E1F55"/>
<rect width="8" height="8" transform="translate(737 553)" fill="#0E1F55"/>
<rect width="8" height="8" transform="translate(769 553)" fill="#0E1F55"/>
<rect width="8" height="8" transform="translate(689 553)" fill="#0E1F55"/>
<rect width="8" height="8" transform="translate(721 553)" fill="#0E1F55"/>
<rect width="8" height="8" transform="translate(753 553)" fill="#0E1F55"/>
<rect width="8" height="8" transform="translate(785 553)" fill="#0E1F55"/>
<rect width="8" height="8" transform="translate(673 617)" fill="#0E1F55"/>
<rect width="8" height="8" transform="translate(705 617)" fill="#0E1F55"/>
<rect width="8" height="8" transform="translate(737 617)" fill="#0E1F55"/>
<rect width="8" height="8" transform="translate(769 617)" fill="#0E1F55"/>
<rect width="8" height="8" transform="translate(689 617)" fill="#0E1F55"/>
<rect width="8" height="8" transform="translate(721 617)" fill="#0E1F55"/>
<rect width="8" height="8" transform="translate(753 617)" fill="#0E1F55"/>
<rect width="8" height="8" transform="translate(785 617)" fill="#0E1F55"/>
<rect width="8" height="8" transform="translate(673 585)" fill="#0E1F55"/>
<rect width="8" height="8" transform="translate(705 585)" fill="#0E1F55"/>
<rect width="8" height="8" transform="translate(737 585)" fill="#0E1F55"/>
<rect width="8" height="8" transform="translate(769 585)" fill="#0E1F55"/>
<rect width="8" height="8" transform="translate(689 585)" fill="#0E1F55"/>
<rect width="8" height="8" transform="translate(721 585)" fill="#0E1F55"/>
<rect width="8" height="8" transform="translate(753 585)" fill="#0E1F55"/>
<rect width="8" height="8" transform="translate(785 585)" fill="#0E1F55"/>
<rect width="8" height="8" transform="translate(673 649)" fill="#0E1F55"/>
<rect width="8" height="8" transform="translate(705 649)" fill="#0E1F55"/>
<rect width="8" height="8" transform="translate(737 649)" fill="#0E1F55"/>
<rect width="8" height="8" transform="translate(769 649)" fill="#0E1F55"/>
<rect width="8" height="8" transform="translate(689 649)" fill="#0E1F55"/>
<rect width="8" height="8" transform="translate(721 649)" fill="#0E1F55"/>
<rect width="8" height="8" transform="translate(753 649)" fill="#0E1F55"/>
<rect width="8" height="8" transform="translate(785 649)" fill="#0E1F55"/>
<rect width="8" height="8" transform="translate(673 569)" fill="#0E1F55"/>
<rect width="8" height="8" transform="translate(705 569)" fill="#0E1F55"/>
<rect width="8" height="8" transform="translate(737 569)" fill="#0E1F55"/>
<rect width="8" height="8" transform="translate(769 569)" fill="#0E1F55"/>
<rect width="8" height="8" transform="translate(689 569)" fill="#0E1F55"/>
<rect width="8" height="8" transform="translate(721 569)" fill="#0E1F55"/>
<rect width="8" height="8" transform="translate(753 569)" fill="#0E1F55"/>
<rect width="8" height="8" transform="translate(785 569)" fill="#0E1F55"/>
<rect width="8" height="8" transform="translate(673 633)" fill="#0E1F55"/>
<rect width="8" height="8" transform="translate(705 633)" fill="#0E1F55"/>
<rect width="8" height="8" transform="translate(737 633)" fill="#0E1F55"/>
<rect width="8" height="8" transform="translate(769 633)" fill="#0E1F55"/>
<rect width="8" height="8" transform="translate(689 633)" fill="#0E1F55"/>
<rect width="8" height="8" transform="translate(721 633)" fill="#0E1F55"/>
<rect width="8" height="8" transform="translate(753 633)" fill="#0E1F55"/>
<rect width="8" height="8" transform="translate(785 633)" fill="#0E1F55"/>
<rect width="8" height="8" transform="translate(673 601)" fill="#0E1F55"/>
<rect width="8" height="8" transform="translate(705 601)" fill="#0E1F55"/>
<rect width="8" height="8" transform="translate(737 601)" fill="#0E1F55"/>
<rect width="8" height="8" transform="translate(769 601)" fill="#0E1F55"/>
<rect width="8" height="8" transform="translate(689 601)" fill="#0E1F55"/>
<rect width="8" height="8" transform="translate(721 601)" fill="#0E1F55"/>
<rect width="8" height="8" transform="translate(753 601)" fill="#0E1F55"/>
<rect width="8" height="8" transform="translate(785 601)" fill="#0E1F55"/>
<rect width="8" height="8" transform="translate(673 665)" fill="#0E1F55"/>
<rect width="8" height="8" transform="translate(705 665)" fill="#0E1F55"/>
<rect width="8" height="8" transform="translate(737 665)" fill="#0E1F55"/>
<rect width="8" height="8" transform="translate(769 665)" fill="#0E1F55"/>
<rect width="8" height="8" transform="translate(689 665)" fill="#0E1F55"/>
<rect width="8" height="8" transform="translate(721 665)" fill="#0E1F55"/>
<rect width="8" height="8" transform="translate(753 665)" fill="#0E1F55"/>
<rect width="8" height="8" transform="translate(785 665)" fill="#0E1F55"/>
</g>
<g opacity="0.25">
<rect width="8" height="8" transform="translate(601 57)" fill="#0E1F55"/>
<rect width="8" height="8" transform="translate(633 57)" fill="#0E1F55"/>
<rect width="8" height="8" transform="translate(665 57)" fill="#0E1F55"/>
<rect width="8" height="8" transform="translate(697 57)" fill="#0E1F55"/>
<rect width="8" height="8" transform="translate(617 57)" fill="#0E1F55"/>
<rect width="8" height="8" transform="translate(649 57)" fill="#0E1F55"/>
<rect width="8" height="8" transform="translate(681 57)" fill="#0E1F55"/>
<rect width="8" height="8" transform="translate(713 57)" fill="#0E1F55"/>
<rect width="8" height="8" transform="translate(601 121)" fill="#0E1F55"/>
<rect width="8" height="8" transform="translate(633 121)" fill="#0E1F55"/>
<rect width="8" height="8" transform="translate(665 121)" fill="#0E1F55"/>
<rect width="8" height="8" transform="translate(697 121)" fill="#0E1F55"/>
<rect width="8" height="8" transform="translate(617 121)" fill="#0E1F55"/>
<rect width="8" height="8" transform="translate(649 121)" fill="#0E1F55"/>
<rect width="8" height="8" transform="translate(681 121)" fill="#0E1F55"/>
<rect width="8" height="8" transform="translate(713 121)" fill="#0E1F55"/>
<rect width="8" height="8" transform="translate(601 89)" fill="#0E1F55"/>
<rect width="8" height="8" transform="translate(633 89)" fill="#0E1F55"/>
<rect width="8" height="8" transform="translate(665 89)" fill="#0E1F55"/>
<rect width="8" height="8" transform="translate(697 89)" fill="#0E1F55"/>
<rect width="8" height="8" transform="translate(617 89)" fill="#0E1F55"/>
<rect width="8" height="8" transform="translate(649 89)" fill="#0E1F55"/>
<rect width="8" height="8" transform="translate(681 89)" fill="#0E1F55"/>
<rect width="8" height="8" transform="translate(713 89)" fill="#0E1F55"/>
<rect width="8" height="8" transform="translate(601 153)" fill="#0E1F55"/>
<rect width="8" height="8" transform="translate(633 153)" fill="#0E1F55"/>
<rect width="8" height="8" transform="translate(665 153)" fill="#0E1F55"/>
<rect width="8" height="8" transform="translate(697 153)" fill="#0E1F55"/>
<rect width="8" height="8" transform="translate(617 153)" fill="#0E1F55"/>
<rect width="8" height="8" transform="translate(649 153)" fill="#0E1F55"/>
<rect width="8" height="8" transform="translate(681 153)" fill="#0E1F55"/>
<rect width="8" height="8" transform="translate(713 153)" fill="#0E1F55"/>
<rect width="8" height="8" transform="translate(601 73)" fill="#0E1F55"/>
<rect width="8" height="8" transform="translate(633 73)" fill="#0E1F55"/>
<rect width="8" height="8" transform="translate(665 73)" fill="#0E1F55"/>
<rect width="8" height="8" transform="translate(697 73)" fill="#0E1F55"/>
<rect width="8" height="8" transform="translate(617 73)" fill="#0E1F55"/>
<rect width="8" height="8" transform="translate(649 73)" fill="#0E1F55"/>
<rect width="8" height="8" transform="translate(681 73)" fill="#0E1F55"/>
<rect width="8" height="8" transform="translate(713 73)" fill="#0E1F55"/>
<rect width="8" height="8" transform="translate(601 137)" fill="#0E1F55"/>
<rect width="8" height="8" transform="translate(633 137)" fill="#0E1F55"/>
<rect width="8" height="8" transform="translate(665 137)" fill="#0E1F55"/>
<rect width="8" height="8" transform="translate(697 137)" fill="#0E1F55"/>
<rect width="8" height="8" transform="translate(617 137)" fill="#0E1F55"/>
<rect width="8" height="8" transform="translate(649 137)" fill="#0E1F55"/>
<rect width="8" height="8" transform="translate(681 137)" fill="#0E1F55"/>
<rect width="8" height="8" transform="translate(713 137)" fill="#0E1F55"/>
<rect width="8" height="8" transform="translate(601 105)" fill="#0E1F55"/>
<rect width="8" height="8" transform="translate(633 105)" fill="#0E1F55"/>
<rect width="8" height="8" transform="translate(665 105)" fill="#0E1F55"/>
<rect width="8" height="8" transform="translate(697 105)" fill="#0E1F55"/>
<rect width="8" height="8" transform="translate(617 105)" fill="#0E1F55"/>
<rect width="8" height="8" transform="translate(649 105)" fill="#0E1F55"/>
<rect width="8" height="8" transform="translate(681 105)" fill="#0E1F55"/>
<rect width="8" height="8" transform="translate(713 105)" fill="#0E1F55"/>
<rect width="8" height="8" transform="translate(601 169)" fill="#0E1F55"/>
<rect width="8" height="8" transform="translate(633 169)" fill="#0E1F55"/>
<rect width="8" height="8" transform="translate(665 169)" fill="#0E1F55"/>
<rect width="8" height="8" transform="translate(697 169)" fill="#0E1F55"/>
<rect width="8" height="8" transform="translate(617 169)" fill="#0E1F55"/>
<rect width="8" height="8" transform="translate(649 169)" fill="#0E1F55"/>
<rect width="8" height="8" transform="translate(681 169)" fill="#0E1F55"/>
<rect width="8" height="8" transform="translate(713 169)" fill="#0E1F55"/>
</g>
<g clip-path="url(#clip0_0_1)" filter="url(#filter0_d_0_1)">
<path d="M612.558 501.515C604.104 526.32 593.233 551.071 579.306 574.629C578.997 575.159 578.684 575.679 578.369 576.208L543.89 565.28C544.088 564.78 544.305 564.22 544.539 563.609C558.446 527.579 642.349 308.055 638.583 264.772C638.989 268.315 652.114 385.562 612.558 501.515Z" fill="#E6E6E6"/>
<path d="M585.958 576.737C585.489 577.217 585.008 577.693 584.524 578.158L558.658 569.961C559.008 569.537 559.415 569.037 559.884 568.473C567.544 559.101 590.319 531.04 612.558 501.515C636.457 469.787 659.742 436.372 663.005 422.642C662.35 425.764 641.94 520.808 585.958 576.737Z" fill="#E6E6E6"/>
<path d="M598.887 211.219C598.877 211.219 598.868 211.222 598.858 211.222V155.675C598.858 149.661 596.474 143.894 592.229 139.641C587.984 135.389 582.227 133 576.225 133H402.638C396.635 133 390.878 135.389 386.633 139.641C382.389 143.894 380.004 149.661 380.004 155.675V184.151C379.525 184.162 379.068 184.359 378.733 184.702C378.398 185.045 378.209 185.506 378.209 185.987V200.091C378.209 200.571 378.398 201.032 378.733 201.375C379.068 201.718 379.525 201.916 380.004 201.926V216.702H379.912C379.671 216.702 379.432 216.749 379.209 216.842C378.987 216.934 378.784 217.07 378.614 217.241C378.443 217.411 378.308 217.614 378.216 217.837C378.123 218.061 378.076 218.3 378.076 218.541V245.816C378.076 246.057 378.123 246.297 378.216 246.52C378.308 246.743 378.443 246.946 378.614 247.117C378.784 247.287 378.987 247.423 379.209 247.515C379.432 247.608 379.671 247.655 379.912 247.655H380.004V258.488H379.975C379.734 258.488 379.495 258.535 379.273 258.628C379.05 258.72 378.848 258.856 378.677 259.027C378.507 259.197 378.371 259.4 378.279 259.623C378.187 259.846 378.139 260.086 378.139 260.327V287.869C378.139 288.11 378.187 288.349 378.279 288.573C378.371 288.796 378.507 288.998 378.677 289.169C378.848 289.34 379.05 289.476 379.273 289.568C379.495 289.66 379.734 289.708 379.975 289.708H380.004V555.93C380.004 561.944 382.389 567.711 386.633 571.963C390.878 576.216 396.635 578.605 402.638 578.605H576.225C582.227 578.605 587.984 576.216 592.229 571.963C596.474 567.711 598.858 561.944 598.858 555.93V265.232C598.868 265.232 598.877 265.235 598.887 265.235C599.316 265.235 599.741 265.15 600.138 264.986C600.535 264.821 600.895 264.58 601.199 264.276C601.502 263.972 601.743 263.611 601.907 263.213C602.072 262.816 602.156 262.39 602.156 261.96V214.494C602.156 213.625 601.812 212.792 601.199 212.178C600.586 211.564 599.754 211.219 598.887 211.219Z" fill="#3F3D56"/>
<path d="M585.344 162.022V549.576C585.342 554.194 583.51 558.622 580.25 561.886C576.991 565.151 572.57 566.985 567.961 566.985H410.901C406.292 566.985 401.871 565.151 398.612 561.886C395.352 558.622 393.52 554.194 393.518 549.576V162.022C393.518 157.404 395.349 152.974 398.609 149.708C401.869 146.442 406.291 144.608 410.901 144.608H434.403V147.664C434.405 151.466 435.914 155.112 438.598 157.801C441.282 160.49 444.921 162.001 448.717 162.003H528.623C532.414 161.995 536.046 160.48 538.724 157.792C541.401 155.104 542.905 151.461 542.905 147.664V144.639H567.961C572.566 144.639 576.983 146.47 580.242 149.729C583.501 152.988 585.336 157.409 585.344 162.022Z" fill="white"/>
<path d="M330.658 350.463C329.729 350.103 328.733 349.951 327.739 350.018C326.746 350.086 325.779 350.37 324.907 350.852C324.035 351.334 323.279 352.002 322.692 352.809C322.106 353.615 321.703 354.54 321.512 355.52L265.543 386.008L275.383 397.104L327.361 363.686C329.024 363.898 330.707 363.492 332.092 362.544C333.476 361.596 334.465 360.172 334.872 358.542C335.278 356.912 335.074 355.19 334.297 353.701C333.521 352.212 332.226 351.06 330.658 350.463H330.658Z" fill="#FFB8B8"/>
<path d="M316.384 569.825L323.358 565.306L309.277 536.206L298.984 542.875L316.384 569.825Z" fill="#FFB8B8"/>
<path d="M340.997 563.078L319.078 577.281L313.6 568.797L327.367 559.876C329.529 558.475 332.158 557.992 334.676 558.533C337.194 559.074 339.394 560.595 340.792 562.761L340.997 563.078L340.997 563.078Z" fill="#2F2E41"/>
<path d="M238.132 570.876H246.438L250.39 538.781H238.132V570.876Z" fill="#FFB8B8"/>
<path d="M262.456 578.603H236.352V568.499H252.748C254.023 568.499 255.285 568.75 256.463 569.239C257.641 569.728 258.711 570.444 259.613 571.348C260.514 572.251 261.229 573.323 261.717 574.503C262.205 575.683 262.456 576.948 262.456 578.225V578.603Z" fill="#2F2E41"/>
<path d="M428.695 195.893H411.572C411.152 195.893 410.748 195.726 410.451 195.428C410.154 195.13 409.987 194.726 409.987 194.305C409.987 193.884 410.154 193.48 410.451 193.182C410.748 192.884 411.152 192.716 411.572 192.716H428.695C429.115 192.716 429.519 192.884 429.816 193.182C430.113 193.48 430.28 193.884 430.28 194.305C430.28 194.726 430.113 195.13 429.816 195.428C429.519 195.726 429.115 195.893 428.695 195.893Z" fill="#3F3D56"/>
<path d="M428.695 200.341H411.572C411.152 200.341 410.748 200.173 410.451 199.875C410.154 199.577 409.987 199.173 409.987 198.752C409.987 198.331 410.154 197.927 410.451 197.629C410.748 197.331 411.152 197.164 411.572 197.164H428.695C429.115 197.164 429.519 197.331 429.816 197.629C430.113 197.927 430.28 198.331 430.28 198.752C430.28 199.173 430.113 199.577 429.816 199.875C429.519 200.173 429.115 200.341 428.695 200.341Z" fill="#3F3D56"/>
<path d="M428.695 204.788H411.572C411.152 204.788 410.748 204.621 410.451 204.323C410.154 204.025 409.987 203.621 409.987 203.2C409.987 202.778 410.154 202.374 410.451 202.076C410.748 201.779 411.152 201.611 411.572 201.611H428.695C429.115 201.611 429.519 201.779 429.816 202.076C430.113 202.374 430.28 202.778 430.28 203.2C430.28 203.621 430.113 204.025 429.816 204.323C429.519 204.621 429.115 204.788 428.695 204.788Z" fill="#3F3D56"/>
<path d="M561.423 200.372H560.846L560.624 200.188C561.353 199.317 561.752 198.218 561.753 197.081C561.748 196.146 561.466 195.234 560.943 194.459C560.421 193.685 559.681 193.083 558.817 192.73C557.952 192.377 557.003 192.288 556.089 192.476C555.175 192.663 554.337 193.118 553.68 193.782C553.024 194.447 552.579 195.292 552.402 196.209C552.225 197.127 552.323 198.077 552.685 198.939C553.047 199.801 553.656 200.536 554.434 201.051C555.213 201.566 556.127 201.839 557.06 201.834C558.191 201.825 559.284 201.426 560.155 200.703L560.37 200.887V201.471L564.01 205.125L565.101 204.032L561.423 200.372ZM557.06 200.372C556.41 200.375 555.774 200.184 555.233 199.825C554.691 199.465 554.268 198.953 554.017 198.352C553.766 197.752 553.698 197.091 553.823 196.452C553.947 195.813 554.258 195.225 554.715 194.763C555.173 194.301 555.757 193.985 556.394 193.856C557.03 193.726 557.691 193.789 558.292 194.036C558.894 194.283 559.408 194.702 559.771 195.242C560.134 195.782 560.33 196.418 560.332 197.069L560.332 197.081C560.335 197.511 560.253 197.937 560.091 198.335C559.929 198.733 559.69 199.095 559.389 199.4C559.087 199.706 558.729 199.949 558.333 200.116C557.938 200.283 557.514 200.37 557.085 200.372C557.077 200.372 557.068 200.372 557.06 200.372H557.06Z" fill="#3F3D56"/>
<path d="M463.578 254.344H432.817C430.967 254.344 429.193 253.608 427.884 252.297C426.576 250.986 425.841 249.209 425.841 247.355C425.841 245.502 426.576 243.724 427.884 242.414C429.193 241.103 430.967 240.367 432.817 240.367H463.578C465.428 240.367 467.203 241.103 468.511 242.414C469.819 243.724 470.554 245.502 470.554 247.355C470.554 249.209 469.819 250.986 468.511 252.297C467.203 253.608 465.428 254.344 463.578 254.344Z" fill="#0C56D0"/>
<path d="M557.75 269.592H429.646C428.637 269.592 427.669 269.19 426.956 268.475C426.242 267.761 425.841 266.791 425.841 265.78C425.841 264.769 426.242 263.799 426.956 263.084C427.669 262.37 428.637 261.968 429.646 261.968H557.75C558.759 261.968 559.727 262.37 560.441 263.084C561.154 263.799 561.555 264.769 561.555 265.78C561.555 266.791 561.154 267.761 560.441 268.475C559.727 269.19 558.759 269.592 557.75 269.592Z" fill="#E6E6E6"/>
<path d="M476.702 284.84H429.646C428.637 284.84 427.669 284.438 426.956 283.724C426.242 283.009 425.841 282.039 425.841 281.028C425.841 280.017 426.242 279.047 426.956 278.333C427.669 277.618 428.637 277.216 429.646 277.216H476.702C477.711 277.216 478.679 277.618 479.393 278.333C480.107 279.047 480.507 280.017 480.507 281.028C480.507 282.039 480.107 283.009 479.393 283.724C478.679 284.438 477.711 284.84 476.702 284.84Z" fill="#E6E6E6"/>
<path d="M463.578 423.343H432.817C430.967 423.343 429.193 422.607 427.884 421.296C426.576 419.985 425.841 418.208 425.841 416.354C425.841 414.501 426.576 412.723 427.884 411.413C429.193 410.102 430.967 409.366 432.817 409.366H463.578C465.428 409.366 467.203 410.102 468.511 411.413C469.819 412.723 470.554 414.501 470.554 416.354C470.554 418.208 469.819 419.985 468.511 421.296C467.203 422.607 465.428 423.343 463.578 423.343Z" fill="#0C56D0"/>
<path d="M557.75 438.591H429.646C428.637 438.591 427.669 438.189 426.956 437.475C426.242 436.76 425.841 435.79 425.841 434.779C425.841 433.768 426.242 432.798 426.956 432.084C427.669 431.369 428.637 430.967 429.646 430.967H557.75C558.759 430.967 559.727 431.369 560.441 432.084C561.154 432.798 561.555 433.768 561.555 434.779C561.555 435.79 561.154 436.76 560.441 437.475C559.727 438.189 558.759 438.591 557.75 438.591Z" fill="#E6E6E6"/>
<path d="M476.702 453.839H429.646C428.637 453.839 427.669 453.437 426.956 452.723C426.242 452.008 425.841 451.038 425.841 450.027C425.841 449.016 426.242 448.046 426.956 447.332C427.669 446.617 428.637 446.215 429.646 446.215H476.702C477.711 446.215 478.679 446.617 479.393 447.332C480.107 448.046 480.507 449.016 480.507 450.027C480.507 451.038 480.107 452.008 479.393 452.723C478.679 453.437 477.711 453.839 476.702 453.839Z" fill="#E6E6E6"/>
<path d="M463.578 501.489H432.817C430.967 501.489 429.193 500.753 427.884 499.442C426.576 498.132 425.841 496.354 425.841 494.5C425.841 492.647 426.576 490.869 427.884 489.559C429.193 488.248 430.967 487.512 432.817 487.512H463.578C465.428 487.512 467.203 488.248 468.511 489.559C469.819 490.869 470.554 492.647 470.554 494.5C470.554 496.354 469.819 498.132 468.511 499.442C467.203 500.753 465.428 501.489 463.578 501.489Z" fill="#0C56D0"/>
<path d="M557.75 516.737H429.646C428.637 516.737 427.669 516.336 426.956 515.621C426.242 514.906 425.841 513.936 425.841 512.925C425.841 511.914 426.242 510.945 426.956 510.23C427.669 509.515 428.637 509.113 429.646 509.113H557.75C558.759 509.113 559.727 509.515 560.441 510.23C561.154 510.945 561.555 511.914 561.555 512.925C561.555 513.936 561.154 514.906 560.441 515.621C559.727 516.336 558.759 516.737 557.75 516.737Z" fill="#E6E6E6"/>
<path d="M476.702 531.985H429.646C428.637 531.985 427.669 531.584 426.956 530.869C426.242 530.154 425.841 529.184 425.841 528.173C425.841 527.162 426.242 526.193 426.956 525.478C427.669 524.763 428.637 524.361 429.646 524.361H476.702C477.711 524.361 478.679 524.763 479.393 525.478C480.107 526.193 480.507 527.162 480.507 528.173C480.507 529.184 480.107 530.154 479.393 530.869C478.679 531.584 477.711 531.985 476.702 531.985Z" fill="#E6E6E6"/>
<path d="M575.824 383.635H331.032C329.602 383.633 328.232 383.063 327.222 382.051C326.211 381.039 325.643 379.666 325.641 378.234V311.524C325.643 310.092 326.211 308.72 327.222 307.707C328.232 306.695 329.602 306.125 331.032 306.124H575.824C577.253 306.125 578.623 306.695 579.634 307.707C580.644 308.72 581.213 310.092 581.215 311.524V378.234C581.213 379.666 580.644 381.039 579.634 382.051C578.623 383.063 577.253 383.633 575.824 383.635Z" fill="#0C56D0"/>
<path d="M243.028 463.001C245.368 479.449 232.976 552.322 234.352 552.316L252.147 552.221C252.782 551.001 260.95 511.68 263.512 505.371C267.089 496.616 270.697 487.753 272.105 478.401C273.43 469.621 272.777 460.675 271.915 451.838C271.955 451.575 271.932 451.306 271.848 451.054C271.764 450.802 271.621 450.573 271.432 450.387C271.242 450.201 271.011 450.062 270.758 449.983C270.504 449.904 270.236 449.886 269.974 449.932L246.097 448.699C241.176 448.445 240.009 447.365 240.758 452.206C241.278 455.821 242.508 459.341 243.028 463.001Z" fill="#2F2E41"/>
<path d="M247.721 423.006C242.869 429.995 237.783 438.038 239.394 446.406C240.618 452.759 245.45 457.683 250.01 462.289C268.236 480.625 304.175 561.528 304.175 561.528C321.519 550.41 303.762 561.846 321.361 550.092C319.801 549.972 284.357 422.326 281.421 422.155C269.543 421.367 259.295 420.204 247.721 423.006Z" fill="#2F2E41"/>
<path d="M266.91 356.487C264.446 354.286 247.129 347.496 247.129 347.496C246.81 347.454 246.487 347.464 246.172 347.525C245.186 347.774 244.737 349.001 244.947 349.993C245.158 350.985 243.431 367.29 242.986 374.704C242.206 387.644 249.812 416.956 249.745 417.852C249.485 421.049 248.088 424.045 245.808 426.297C246.401 427.034 284.027 428.511 286.586 429.383C287.103 428.727 283.673 382.233 283.515 379.607C283.252 375.62 270.163 359.507 266.91 356.487Z" fill="#E6E6E6"/>
<path d="M240.073 457.371C240.965 456.926 241.748 456.291 242.369 455.51C242.989 454.73 243.431 453.822 243.663 452.852C243.895 451.882 243.912 450.872 243.713 449.894C243.514 448.917 243.103 447.995 242.51 447.193L258.385 359.174L243.57 358.979L232.546 446.018C231.268 447.106 230.433 448.626 230.199 450.289C229.965 451.953 230.349 453.645 231.276 455.044C232.204 456.443 233.612 457.453 235.234 457.882C236.855 458.311 238.577 458.129 240.073 457.371H240.073Z" fill="#FFB8B8"/>
<path d="M239.946 365.705C239.328 365.75 238.713 365.59 238.195 365.248C237.314 364.492 244.506 352.923 245.926 352.751C250.549 352.217 255.306 352.039 259.789 353.291C264.273 354.543 268.49 357.389 270.494 361.601C271.331 363.355 265.262 372.18 262.503 370.883C259.199 369.333 244.296 365.813 239.946 365.705Z" fill="#E6E6E6"/>
<path d="M256.263 346.548C265.454 346.548 272.904 339.084 272.904 329.878C272.904 320.671 265.454 313.207 256.263 313.207C247.073 313.207 239.623 320.671 239.623 329.878C239.623 339.084 247.073 346.548 256.263 346.548Z" fill="#FFB8B8"/>
<path d="M239.919 357.441C242.232 357.683 244.568 357.341 246.714 356.445C248.86 355.549 250.748 354.128 252.204 352.313C253.661 350.497 254.639 348.345 255.051 346.052C255.462 343.76 255.294 341.4 254.56 339.19C253.898 337.196 252.791 335.368 252.184 333.355C251.578 331.343 251.561 328.964 252.906 327.351C255.538 324.194 260.61 326.18 264.667 325.552C268.99 324.883 272.307 320.728 272.653 316.36C272.999 311.992 270.726 307.669 267.342 304.891C263.959 302.114 259.596 300.746 255.242 300.318C249.652 299.767 244.014 300.668 238.871 302.934C233.729 305.199 229.256 308.753 225.882 313.253C222.508 317.752 220.347 323.046 219.608 328.625C218.868 334.204 219.575 339.88 221.66 345.106C223.478 349.664 226.449 353.911 230.669 356.407C234.888 358.904 240.461 359.384 244.667 356.863" fill="#2F2E41"/>
<path d="M418.09 336.62H375.565C372.865 336.62 370.668 333.485 370.668 329.631C370.668 325.778 372.865 322.642 375.566 322.642H418.09C420.79 322.642 422.987 325.778 422.987 329.631C422.987 333.485 420.79 336.62 418.09 336.62Z" fill="white"/>
<path d="M532.383 351.868H374.473C373.464 351.868 372.496 351.466 371.782 350.751C371.069 350.036 370.668 349.067 370.668 348.056C370.668 347.045 371.069 346.075 371.782 345.36C372.496 344.645 373.464 344.244 374.473 344.244H532.383C533.392 344.244 534.36 344.645 535.074 345.36C535.787 346.075 536.188 347.045 536.188 348.056C536.188 349.067 535.787 350.036 535.074 350.751C534.36 351.466 533.392 351.868 532.383 351.868Z" fill="#E6E6E6"/>
<path d="M451.335 367.116H374.473C373.464 367.116 372.496 366.714 371.782 365.999C371.069 365.284 370.668 364.315 370.668 363.304C370.668 362.293 371.069 361.323 371.782 360.608C372.496 359.893 373.464 359.492 374.473 359.492H451.335C452.344 359.492 453.312 359.893 454.026 360.608C454.739 361.323 455.14 362.293 455.14 363.304C455.14 364.315 454.739 365.284 454.026 365.999C453.312 366.714 452.344 367.116 451.335 367.116Z" fill="#E6E6E6"/>
<path d="M683 577.729H182V579H683V577.729Z" fill="#3F3D56"/>
</g>
<defs>
<filter id="filter0_d_0_1" x="178" y="133" width="509" height="454" filterUnits="userSpaceOnUse" color-interpolation-filters="sRGB">
<feFlood flood-opacity="0" result="BackgroundImageFix"/>
<feColorMatrix in="SourceAlpha" type="matrix" values="0 0 0 0 0 0 0 0 0 0 0 0 0 0 0 0 0 0 127 0" result="hardAlpha"/>
<feOffset dy="4"/>
<feGaussianBlur stdDeviation="2"/>
<feColorMatrix type="matrix" values="0 0 0 0 0 0 0 0 0 0 0 0 0 0 0 0 0 0 0.25 0"/>
<feBlend mode="normal" in2="BackgroundImageFix" result="effect1_dropShadow_0_1"/>
<feBlend mode="normal" in="SourceGraphic" in2="effect1_dropShadow_0_1" result="shape"/>
</filter>
<clipPath id="clip0_0_1">
<rect width="501" height="446" fill="white" transform="translate(182 133)"/>
</clipPath>
</defs>
</svg>
